<svg xmlns="http://www.w3.org/2000/svg" width="40" height="40" viewBox="0 0 40 40" style="vertical-align: middle;">
  <g fill="none" fill-rule="evenodd">
    <g transform="translate(10.275 13)">
      <path
        stroke="currentColor"
        stroke-linecap="round"
        stroke-linejoin="round"
        stroke-width="2.25"
        d="M19.514 4.185c-.357-.36-.73-.699-1.117-1.018C15.978 1.177 12.977 0 9.727 0 6.476 0 3.474 1.18 1.054 3.172c-.365.3-.716.618-1.053.954"
      />
      <path
        stroke="currentColor"
        stroke-linecap="round"
        stroke-linejoin="round"
        stroke-width="2.25"
        d="M16.617 6.96c-.243-.242-.495-.472-.756-.689C14.137 4.842 12.017 4 9.726 4c-2.322 0-4.467.865-6.204 2.328-.232.196-.457.402-.674.618M13.835 9.845c-.17-.176-.347-.341-.532-.495C12.281 8.497 11.05 8 9.727 8c-1.368 0-2.635.53-3.677 1.436-.142.123-.28.253-.413.39"
      />
      <circle cx="9.725" cy="13" r="2" fill="currentColor" />
    </g>
  </g>
</svg>